<?xml version="1.0" standalone="no"?>
<!DOCTYPE svg PUBLIC "-//W3C//DTD SVG 20010904//EN"
 "http://www.w3.org/TR/2001/REC-SVG-20010904/DTD/svg10.dtd">
<svg version="1.0" xmlns="http://www.w3.org/2000/svg"
 width="636.000000pt" height="134.000000pt" viewBox="0 0 636.000000 134.000000"
 preserveAspectRatio="xMidYMid meet">

<g transform="translate(0.000000,134.000000) scale(0.100000,-0.100000)"
fill="#000000" stroke="none">
<path d="M2267 1028 c-21 -8 -27 -15 -25 -37 1 -15 -49 -152 -117 -319 -114
-281 -120 -293 -149 -300 -17 -5 -32 -16 -34 -25 -3 -15 8 -17 102 -17 89 0
106 3 106 15 0 16 -5 19 -52 29 l-27 6 38 93 37 92 124 0 124 0 33 -89 c18
-48 30 -92 27 -97 -3 -5 -21 -9 -40 -9 -27 0 -34 -4 -34 -20 0 -19 7 -20 125
-20 118 0 125 1 125 20 0 14 -7 20 -22 20 -13 0 -29 4 -37 9 -8 5 -67 155
-132 333 -70 195 -122 324 -130 325 -8 1 -26 -3 -42 -9z m62 -278 c22 -63 41
-118 41 -122 0 -5 -43 -8 -95 -8 -69 0 -95 3 -95 13 0 22 94 247 101 239 3 -4
25 -59 48 -122z"/>
<path d="M3670 1017 c-109 -32 -187 -94 -237 -188 -26 -49 -28 -63 -28 -159 0
-95 3 -110 27 -156 41 -78 125 -149 205 -174 74 -23 202 -27 280 -9 47 11 51
15 84 77 44 85 43 81 25 88 -10 4 -33 -13 -68 -48 -81 -82 -175 -100 -275 -54
-236 110 -252 467 -25 561 96 41 233 8 281 -67 14 -22 32 -38 44 -38 17 0 18
5 12 43 -17 113 -12 105 -68 117 -82 18 -206 22 -257 7z"/>
<path d="M5573 1021 c-50 -4 -95 -9 -98 -13 -13 -13 5 -25 45 -32 l40 -6 0
-295 0 -295 -22 -4 c-13 -3 -32 -7 -43 -8 -11 -2 -20 -10 -20 -18 0 -23 329
-27 394 -5 82 27 141 102 141 177 -1 65 -54 144 -127 187 -17 10 -17 12 0 22
31 18 57 84 57 144 0 49 -4 59 -35 94 -54 60 -99 67 -332 52z m206 -59 c69
-34 97 -110 66 -175 -20 -43 -63 -65 -135 -69 l-55 -3 -3 119 c-1 66 0 126 2
133 8 19 85 16 125 -5z m18 -314 c24 -6 55 -24 74 -44 28 -29 33 -43 37 -92 4
-56 3 -59 -32 -90 -19 -17 -52 -34 -72 -38 -36 -7 -126 0 -144 11 -10 6 -14
257 -5 267 8 7 90 -1 142 -14z"/>
<path d="M404 1011 c-14 -14 2 -28 39 -37 l42 -9 3 -292 2 -293 -22 -4 c-13
-3 -32 -7 -43 -8 -11 -2 -20 -10 -20 -18 0 -12 23 -15 133 -18 123 -2 133 -1
130 15 -2 10 -12 19 -23 21 -70 10 -65 -1 -65 147 l0 135 94 0 94 0 7 -40 c4
-25 12 -40 21 -40 11 0 14 21 14 100 0 79 -3 100 -14 100 -8 0 -17 -15 -20
-35 l-7 -35 -94 0 -95 0 0 130 0 130 110 0 c98 0 110 -2 120 -19 5 -11 10 -29
10 -40 0 -14 6 -21 20 -21 18 0 20 7 20 65 0 40 -4 65 -11 65 -6 0 -107 1
-226 3 -118 1 -217 0 -219 -2z"/>
<path d="M930 999 c0 -10 14 -19 38 -25 l37 -9 3 -289 c3 -312 4 -306 -50
-306 -21 0 -28 -5 -28 -20 0 -19 7 -20 131 -20 119 0 130 2 127 17 -2 10 -12
19 -23 21 -11 1 -30 5 -43 8 l-22 4 2 293 3 292 43 9 c29 7 42 15 40 25 -3 12
-26 15 -131 15 -109 1 -127 -1 -127 -15z"/>
<path d="M1270 1000 c0 -13 11 -20 40 -25 l40 -7 0 -293 c0 -318 2 -305 -56
-305 -17 0 -24 -6 -24 -20 0 -19 7 -20 116 -20 104 0 115 2 112 17 -2 12 -16
20 -41 24 -20 3 -40 8 -42 11 -3 3 -4 115 -3 249 l3 244 208 -275 c115 -151
216 -278 225 -281 41 -15 42 -10 42 326 l0 323 40 7 c29 5 40 12 40 24 0 15
-12 17 -112 16 -90 -2 -114 -5 -116 -16 -2 -10 11 -18 40 -25 l43 -9 3 -233
c1 -141 -1 -232 -7 -230 -5 1 -89 109 -186 238 -98 129 -185 244 -196 254 -14
15 -34 20 -93 21 -67 2 -76 0 -76 -15z"/>
<path d="M2660 999 c0 -11 12 -18 40 -23 l40 -6 -2 -298 -3 -297 -37 -3 c-30
-3 -38 -7 -38 -23 0 -18 9 -19 238 -19 l238 0 23 71 c19 59 21 73 9 80 -20 13
-21 12 -48 -39 l-25 -47 -130 0 -130 0 0 285 0 285 43 9 c30 6 42 14 40 24 -2
12 -26 15 -131 16 -111 1 -127 -1 -127 -15z"/>
<path d="M4110 999 c0 -12 12 -19 40 -24 l40 -7 0 -293 c0 -318 2 -305 -56
-305 -17 0 -24 -6 -24 -20 0 -19 7 -20 238 -20 l238 0 21 72 c16 54 19 75 10
80 -19 12 -20 11 -49 -42 l-28 -50 -130 0 -130 0 2 288 3 287 43 9 c29 7 42
15 40 25 -2 12 -26 15 -130 15 -114 1 -128 0 -128 -15z"/>
<path d="M4674 1011 c-14 -14 1 -28 39 -37 l42 -9 5 -235 c6 -252 11 -276 62
-332 44 -46 106 -71 191 -76 134 -8 229 36 270 126 19 43 22 68 25 284 l4 237
40 6 c29 5 38 11 36 23 -3 15 -19 17 -113 17 -90 0 -110 -3 -113 -16 -2 -10
10 -18 40 -25 l43 -9 0 -230 c0 -217 -1 -232 -22 -271 -49 -92 -210 -117 -301
-47 -65 49 -72 80 -72 330 l0 221 41 7 c29 5 39 11 37 23 -3 13 -23 15 -126
16 -68 1 -126 -1 -128 -3z"/>
</g>
</svg>
